<svg xmlns="http://www.w3.org/2000/svg" width="268" height="92.37" viewBox="0 0 268 92.37">
  <g id="Layer_x0020_1" transform="translate(0.01 -0.008)">
    <g id="_2259861993744" transform="translate(-0.01 60.538)">
      <path id="Path_1" data-name="Path 1" d="M517.4,404.371h5.022V382.61l8.2,11.884c1.474,2.211,2.513,3.7,3.988,6.055,2.3,3.661,1.552,3.822,7.06,3.822V374.24h-4.184l-.716,21.64c-.619-.9-.457-.668-1-1.511-2.559-3.98-12.383-20.129-15.023-20.129H517.4v30.131Z" transform="translate(-443.476 -373.37)" fill-rule="evenodd"/>
      <path id="Path_2" data-name="Path 2" d="M262.466,396.731c-15.73,0-13.219-23.435-1.675-23.435C275.939,373.3,274.045,396.731,262.466,396.731Zm-2.511,4.184c4.485,0,8.584-.953,11.523-3.542,7.481-6.589,6.744-28.263-9.85-28.263-9.4,0-14.154,6.87-14.884,15.278-.7,8.064,6.079,16.526,13.209,16.526Z" transform="translate(-206.387 -369.078)" fill-rule="evenodd"/>
      <path id="Path_3" data-name="Path 3" d="M1019.43,404.379h22.6v-4.184h-17.577v-9.207h15.9V386.8h-15.9v-8.37c17.861,0,17.452,1.407,17.577-4.184h-22.6v30.131Z" transform="translate(-873.654 -373.378)" fill-rule="evenodd"/>
      <path id="Path_4" data-name="Path 4" d="M1706.727,378.327c0,4.441,4.495,6.55,8.239,7.663,5.7,1.693,7.254.569,11.01,4.892-.529,2.271-.237,2.683-1.729,4.13-2.291,2.222-13.428,3.995-14.173-4.967h-4.184c0,6.473,4.612,10.081,9.816,10.881h4.5c5.258-.8,9.952-4.449,9.952-10.881,0-7.659-14.631-6.4-19.25-11.718,1.134-4.864,3.055-5.022,7.533-5.022,7.728,0,4.019,5.859,8.37,5.859,5.668,0,.456-10.043-9.207-10.043-6.112,0-10.881,3.094-10.881,9.207Z" transform="translate(-1462.162 -369.086)" fill-rule="evenodd"/>
      <path id="Path_5" data-name="Path 5" d="M1267.636,387.312h-8.37V377.269h10.881C1275.083,377.269,1275.958,387.312,1267.636,387.312Zm-12.554,15.9h4.184V391.5c9.612,0,19.25,1.051,19.25-10.043,0-10.759-13.185-8.37-23.435-8.37v30.131Z" transform="translate(-1075.684 -372.213)" fill-rule="evenodd"/>
      <path id="Path_6" data-name="Path 6" d="M-.008,382.512c0,9.893,2,18.413,14.229,18.413,6.851,0,12.035-4.63,12.554-10.881a18.93,18.93,0,0,1-4.184-.837c-1.782,3.714-2.506,7.532-8.37,7.532-16.162,0-11.394-29.152,3.4-22.653,2.56,1.126,1.544.823,2.751,2.3,1.4,1.712,4.3,5.449,5.294,1.093.673-2.941-5.362-8.36-11.448-8.36C6.5,369.12-.01,374.745-.01,382.511Z" transform="translate(0.01 -369.086)" fill-rule="evenodd"/>
      <path id="Path_7" data-name="Path 7" d="M763.3,383.175c0,11.5,5.477,16.665,11.479,17.577h4.036c5.645-.832,10.781-5.034,11.267-10.881a18.949,18.949,0,0,1-4.184-.837c-1.426,6.122-3.741,7.532-9.206,7.532-11.237,0-13.752-23.435,1.675-23.435,2.993,0,4.078.907,5.477,2.893,2.4,3.411-.136,2.965,5.4,2.965-.328-14.771-25.947-13.242-25.947,4.184Z" transform="translate(-654.385 -368.912)" fill-rule="evenodd"/>
      <path id="Path_8" data-name="Path 8" d="M1477,378.434h7.533v25.945h5.022V378.434h9.207V374.25H1477c-3.578,0-3.578,4.184,0,4.184Z" transform="translate(-1268.422 -373.378)" fill-rule="evenodd"/>
    </g>
    <g id="_2259861996752" transform="translate(34.735 0.008)">
      <path id="Path_9" data-name="Path 9" d="M276.325,26.13H265.444V16.923c7.109,0,7.452-.547,13.392.837C279.216,19.384,281.541,26.13,276.325,26.13Zm-3.348-13.391h-7.534V4.369c6.994,0,6.718-.523,12.554.837.2.815,3.3,7.534-5.022,7.534ZM261.26,30.315c11.183,0,23.435,2.5,23.435-9.207,0-3.526-2.6-5.413-5.022-6.7,1.56-2.33,3.348-2.893,3.348-6.7,0-9.545-12.438-7.534-21.761-7.534Z" transform="translate(-261.26 -0.008)" fill-rule="evenodd"/>
      <path id="Path_10" data-name="Path 10" d="M496.91,31.219h23.435c-.126-5.66.19-4.184-18.413-4.184V17.828h16.74V13.644h-16.74V5.274h17.577V1.09h-22.6V31.221Z" transform="translate(-462.196 -0.913)" fill-rule="evenodd"/>
      <path id="Path_11" data-name="Path 11" d="M973.33,22.842c0,5.354,4.71,8.607,9.909,9.207h3.5c5.241-.618,10.022-4.053,10.022-10.881V1.08h-4.184c0,18.57,2.624,26.783-8.37,26.783-9.371,0-6.7-12.513-6.7-26.783h-4.184V22.841Z" transform="translate(-868.435 -0.905)" fill-rule="evenodd"/>
      <path id="Path_12" data-name="Path 12" d="M717.182,31.211c4.643,0,4.348.1,5.617-3.589L731.41,6.939c.453,5.444,7.947,19.2,8.37,24.272h5.859L736.191,8.854c-1.06-2.663-2.008-5.483-3.107-7.774h-5.022C727,5.62,724.5,11.012,722.686,15.792c-1.423,3.74-5.209,11.852-5.506,15.418Z" transform="translate(-650.213 -0.905)" fill-rule="evenodd"/>
      <path id="Path_13" data-name="Path 13" d="M1208.98,5.274h9.207V31.219h5.022V5.274c10.411,0,9.932.827,10.043-4.184H1208.98V5.274Z" transform="translate(-1069.438 -0.913)" fill-rule="evenodd"/>
      <path id="Path_14" data-name="Path 14" d="M1435.839,21.168V31.211h4.184c0-22.746,1.5-10.821,11.718-30.131h-5.022l-9.207,13.391a142.243,142.243,0,0,0-8.37-13.391h-5.022c3.381,6.39,11.718,16.038,11.718,20.088Z" transform="translate(-1253.231 -0.905)" fill-rule="evenodd"/>
    </g>
  </g>
</svg>
