<svg xmlns="http://www.w3.org/2000/svg" width="475.228" height="163.794" viewBox="0 0 475.228 163.794">
  <g id="Layer_x0020_1" transform="translate(0.01 -0.008)">
    <g id="_2259861993744" transform="translate(-0.01 107.343)">
      <path id="Path_1" data-name="Path 1" d="M517.4,427.669h8.906V389.082l14.547,21.074c2.613,3.92,4.456,6.568,7.072,10.737,4.07,6.492,2.752,6.776,12.518,6.776V374.24h-7.419l-1.269,38.373c-1.1-1.6-.811-1.185-1.773-2.68-4.537-7.057-21.957-35.693-26.639-35.693h-5.936v53.429Z" transform="translate(-386.315 -372.696)" fill="#fff" fill-rule="evenodd"/>
      <path id="Path_2" data-name="Path 2" d="M274.662,418.089c-27.894,0-23.441-41.557-2.97-41.557C298.552,376.532,295.194,418.089,274.662,418.089Zm-4.453,7.42c7.953,0,15.222-1.689,20.434-6.281,13.266-11.684,11.959-50.118-17.467-50.118-16.67,0-25.1,12.182-26.393,27.091-1.243,14.3,10.78,29.3,23.423,29.3Z" transform="translate(-175.22 -369.053)" fill="#fff" fill-rule="evenodd"/>
      <path id="Path_3" data-name="Path 3" d="M1019.43,427.676H1059.5v-7.42h-31.167V403.931h28.2v-7.42h-28.2V381.67c31.672,0,30.947,2.494,31.167-7.42H1019.43v53.429Z" transform="translate(-760.935 -372.703)" fill="#fff" fill-rule="evenodd"/>
      <path id="Path_4" data-name="Path 4" d="M1707.373,385.445c0,7.874,7.97,11.615,14.61,13.588,10.1,3,12.863,1.008,19.524,8.674-.939,4.027-.42,4.757-3.065,7.324-4.062,3.94-23.812,7.083-25.133-8.807h-7.419c0,11.479,8.179,17.875,17.406,19.295h7.988c9.323-1.425,17.646-7.889,17.646-19.295,0-13.582-25.944-11.351-34.134-20.778,2.01-8.625,5.417-8.906,13.358-8.906,13.7,0,7.127,10.389,14.842,10.389,10.05,0,.809-17.809-16.325-17.809-10.838,0-19.295,5.487-19.295,16.325Z" transform="translate(-1273.702 -369.06)" fill="#fff" fill-rule="evenodd"/>
      <path id="Path_5" data-name="Path 5" d="M1277.345,398.489H1262.5V380.681H1281.8C1290.549,380.681,1292.1,398.489,1277.345,398.489Zm-22.262,28.2h7.419V405.909c17.044,0,34.134,1.863,34.134-17.809,0-19.078-23.38-14.842-41.556-14.842v53.429Z" transform="translate(-936.968 -371.715)" fill="#fff" fill-rule="evenodd"/>
      <path id="Path_6" data-name="Path 6" d="M-.007,392.868c0,17.542,3.549,32.651,25.231,32.651,12.148,0,21.34-8.21,22.262-19.295-4.007-.333-4.039-.7-7.42-1.483-3.161,6.585-4.444,13.356-14.842,13.356-28.658,0-20.2-51.694,6.032-40.169,4.54,2,2.738,1.46,4.879,4.079,2.483,3.036,7.619,9.662,9.387,1.938,1.194-5.215-9.508-14.825-20.3-14.825-13.686,0-25.231,9.975-25.231,23.745Z" transform="translate(0.01 -369.06)" fill="#fff" fill-rule="evenodd"/>
      <path id="Path_7" data-name="Path 7" d="M763.3,394.2c0,20.387,9.711,29.551,20.355,31.167h7.156c10.01-1.475,19.118-8.926,19.979-19.295-4.007-.333-4.036-.7-7.42-1.483-2.529,10.856-6.634,13.356-16.325,13.356-19.927,0-24.385-41.557,2.969-41.557,5.308,0,7.231,1.608,9.711,5.131,4.253,6.049-.24,5.258,9.584,5.258-.582-26.193-46.009-23.481-46.009,7.42Z" transform="translate(-570.169 -368.912)" fill="#fff" fill-rule="evenodd"/>
      <path id="Path_8" data-name="Path 8" d="M1479.07,381.67h13.359v46.007h8.906V381.67h16.326v-7.42h-38.587c-6.345,0-6.345,7.42,0,7.42Z" transform="translate(-1109.217 -372.704)" fill="#fff" fill-rule="evenodd"/>
    </g>
    <g id="_2259861996752" transform="translate(61.601 0.008)">
      <path id="Path_9" data-name="Path 9" d="M287.975,46.328H268.68V30c12.605,0,13.214-.971,23.748,1.483C293.1,34.366,297.222,46.328,287.975,46.328Zm-5.936-23.745H268.68V7.741c12.4,0,11.913-.927,22.262,1.483.348,1.446,5.858,13.359-8.906,13.359ZM261.26,53.75c19.831,0,41.557,4.427,41.557-16.325,0-6.252-4.6-9.6-8.906-11.872,2.767-4.131,5.936-5.131,5.936-11.872C299.847-3.245,277.791.321,261.26.321Z" transform="translate(-261.26 -0.008)" fill="#fff" fill-rule="evenodd"/>
      <path id="Path_10" data-name="Path 10" d="M496.91,54.516h41.557c-.223-10.036.336-7.42-32.651-7.42V30.771H535.5v-7.42H505.816V8.51h31.167V1.09H496.91V54.519Z" transform="translate(-435.355 -0.777)" fill="#fff" fill-rule="evenodd"/>
      <path id="Path_11" data-name="Path 11" d="M973.33,39.67c0,9.494,8.353,15.262,17.571,16.325h6.214c9.294-1.1,17.771-7.188,17.771-19.295V1.08h-7.42c0,32.929,4.653,47.493-14.842,47.493-16.618,0-11.872-22.189-11.872-47.493h-7.42V39.667Z" transform="translate(-787.327 -0.769)" fill="#fff" fill-rule="evenodd"/>
      <path id="Path_12" data-name="Path 12" d="M717.183,54.509c8.234,0,7.709.177,9.96-6.365l15.271-36.675c.8,9.653,14.092,34.038,14.842,43.04h10.389L750.891,14.865c-1.88-4.722-3.561-9.723-5.51-13.785h-8.906c-1.877,8.051-6.307,17.612-9.532,26.089-2.523,6.632-9.236,21.016-9.763,27.34Z" transform="translate(-598.432 -0.769)" fill="#fff" fill-rule="evenodd"/>
      <path id="Path_13" data-name="Path 13" d="M1208.98,8.51h16.325V54.516h8.906V8.51c18.46,0,17.612,1.466,17.809-7.42h-43.04V8.51Z" transform="translate(-961.539 -0.777)" fill="#fff" fill-rule="evenodd"/>
      <path id="Path_14" data-name="Path 14" d="M1444.9,36.7V54.509h7.419c0-40.334,2.659-19.188,20.778-53.429h-8.906l-16.326,23.745c-4.742-8.964-9.407-15.63-14.842-23.745h-8.906c5.995,11.331,20.778,28.438,20.778,35.62Z" transform="translate(-1121.094 -0.769)" fill="#fff" fill-rule="evenodd"/>
    </g>
  </g>
</svg>
