<svg id="Icon_ionic-ios-arrow-dropleft" data-name="Icon ionic-ios-arrow-dropleft" xmlns="http://www.w3.org/2000/svg" width="59.454" height="59.454" viewBox="0 0 59.454 59.454">
  <path id="Path_438" data-name="Path 438" d="M12.978,10.787a2.769,2.769,0,0,1,3.9,0L30.515,24.464a2.755,2.755,0,0,1,.086,3.8L17.166,41.743a2.754,2.754,0,1,1-3.9-3.887l11.4-11.576L12.964,14.688A2.756,2.756,0,0,1,12.978,10.787Z" transform="translate(10.274 3.448)"/>
  <path id="Path_439" data-name="Path 439" d="M33.1,3.375A29.727,29.727,0,1,1,3.375,33.1,29.723,29.723,0,0,1,33.1,3.375ZM15.323,50.881A25.143,25.143,0,1,0,50.881,15.323,25.143,25.143,0,1,0,15.323,50.881Z" transform="translate(-3.375 -3.375)"/>
</svg>
