<svg xmlns="http://www.w3.org/2000/svg" width="26.353" height="34.56" viewBox="0 0 26.353 34.56">
  <path id="Icon_map-city-hall" data-name="Icon map-city-hall" d="M5.575,15.7H8.084V31.824h3.765V18h3.765V31.824h3.764V18h3.766V31.824h3.765V15.7h2.508a1.207,1.207,0,0,0,1.256-1.152,1.12,1.12,0,0,0-.523-.932l0,0-.019-.011L30.1,13.58l-11.977-6.2V5.566c2.212,1.017,4.033-.734,6.9.318V1.873c-2.87-1.053-4.69.7-6.9-.319V1.3a.629.629,0,0,0-1.254,0V7.381l-11.977,6.2L4.86,13.6l-.018.012v0a1.123,1.123,0,0,0-.521.932A1.206,1.206,0,0,0,5.575,15.7ZM6.829,32.977,4.32,35.28H30.673l-2.511-2.3Z" transform="translate(-4.32 -0.72)"/>
</svg>
