<svg xmlns="http://www.w3.org/2000/svg" width="30.805" height="25.607" viewBox="0 0 30.805 25.607">
  <path id="Icon_awesome-store" data-name="Icon awesome-store" d="M30.11,5.932,26.864.75A1.6,1.6,0,0,0,25.508,0H5.3A1.6,1.6,0,0,0,3.947.75L.7,5.932a4.462,4.462,0,0,0,2.941,6.822,5.2,5.2,0,0,0,.685.045,4.939,4.939,0,0,0,3.691-1.655,4.942,4.942,0,0,0,7.382,0,4.942,4.942,0,0,0,7.382,0A4.955,4.955,0,0,0,26.473,12.8a5.142,5.142,0,0,0,.685-.045A4.457,4.457,0,0,0,30.11,5.932ZM26.483,14.4a6.346,6.346,0,0,1-1.475-.19v4.991H5.8V14.214a6.626,6.626,0,0,1-1.475.19,6.748,6.748,0,0,1-.9-.06,6.29,6.29,0,0,1-.82-.18v9.843a1.6,1.6,0,0,0,1.6,1.6H26.614a1.6,1.6,0,0,0,1.6-1.6V14.164a5.106,5.106,0,0,1-.82.18A6.955,6.955,0,0,1,26.483,14.4Z" transform="translate(-0.004)"/>
</svg>
